<svg xmlns="http://www.w3.org/2000/svg" viewBox="0 0 192 192" width="192" height="192">
  <!-- 背景圆角矩形 -->
  <rect width="192" height="192" rx="32" fill="#fdf8f4"/>
  <!-- 奶瓶瓶身 -->
  <rect x="56" y="62" width="80" height="80" rx="12" fill="#f5b7a1" opacity=".9"/>
  <rect x="56" y="90" width="80" height="52" rx="12" fill="#f5b7a1" opacity=".9"/>
  <!-- 奶瓶底部 -->
  <rect x="52" y="136" width="88" height="12" rx="4" fill="#e8a08a" opacity=".8"/>
  <!-- 奶瓶瓶颈 -->
  <rect x="76" y="42" width="40" height="24" rx="4" fill="#f5b7a1" opacity=".85"/>
  <!-- 奶嘴 -->
  <ellipse cx="96" cy="38" rx="16" ry="10" fill="#e8a08a" opacity=".75"/>
  <ellipse cx="96" cy="30" rx="8" ry="5" fill="#e8a08a" opacity=".65"/>
  <!-- 奶瓶刻度线 -->
  <line x1="60" y1="100" x2="80" y2="100" stroke="#fff" stroke-width="2" stroke-linecap="round" opacity=".5"/>
  <line x1="60" y1="112" x2="72" y2="112" stroke="#fff" stroke-width="2" stroke-linecap="round" opacity=".5"/>
  <line x1="60" y1="124" x2="80" y2="124" stroke="#fff" stroke-width="2" stroke-linecap="round" opacity=".5"/>
  <!-- 奶瓶高光 -->
  <rect x="64" y="70" width="8" height="50" rx="4" fill="#fff" opacity=".15"/>
  <!-- 小心形装饰 -->
  <path d="M132 68 c0-4-3-7-7-7 -3 0-6 2-7 5 -1-3-4-5-7-5 -4 0-7 3-7 7 0 4 2 7 5 10 3 3 9 7 9 7s6-4 9-7c3-3 5-6 5-10z" fill="#ff8a80" opacity=".6"/>
</svg>